<?xml version="1.0" encoding="iso-8859-1"?>
<!-- Generator: Adobe Illustrator 19.0.0, SVG Export Plug-In . SVG Version: 6.00 Build 0)  -->
<svg version="1.1" id="Layer_1" xmlns="http://www.w3.org/2000/svg" xmlns:xlink="http://www.w3.org/1999/xlink" x="0px" y="0px"
	 viewBox="0 0 512 512" style="enable-background:new 0 0 512 512;" xml:space="preserve">
<g>
	<g>
		<g>
			<path d="M132.741,210.778c-26.139,0-47.407,21.269-47.407,47.407c0,26.139,21.269,47.407,47.407,47.407
				c26.139,0,47.407-21.269,47.407-47.407C180.148,232.047,158.88,210.778,132.741,210.778z M132.741,286.63
				c-15.685,0-28.444-12.759-28.444-28.444s12.759-28.444,28.444-28.444c15.685,0,28.444,12.759,28.444,28.444
				S148.426,286.63,132.741,286.63z"/>
			<path d="M379.259,182.333c26.139,0,47.407-21.269,47.407-47.407s-21.269-47.407-47.407-47.407s-47.407,21.269-47.407,47.407
				S353.12,182.333,379.259,182.333z M379.259,106.482c15.685,0,28.444,12.759,28.444,28.444c0,15.685-12.759,28.444-28.444,28.444
				c-15.685,0-28.444-12.759-28.444-28.444C350.815,119.241,363.574,106.482,379.259,106.482z"/>
			<path d="M132.741,334.037c-26.139,0-47.407,21.269-47.407,47.407s21.269,47.407,47.407,47.407
				c26.139,0,47.407-21.269,47.407-47.407S158.88,334.037,132.741,334.037z M132.741,409.889c-15.685,0-28.444-12.759-28.444-28.444
				S117.056,353,132.741,353c15.685,0,28.444,12.759,28.444,28.444S148.426,409.889,132.741,409.889z"/>
			<path d="M132.741,87.519c-26.139,0-47.407,21.269-47.407,47.407s21.269,47.407,47.407,47.407
				c26.139,0,47.407-21.269,47.407-47.407S158.88,87.519,132.741,87.519z M132.741,163.37c-15.685,0-28.444-12.759-28.444-28.444
				c0-15.685,12.759-28.444,28.444-28.444c15.685,0,28.444,12.759,28.444,28.444C161.185,150.611,148.426,163.37,132.741,163.37z"/>
			<path d="M379.259,334.037c-26.139,0-47.407,21.269-47.407,47.407s21.269,47.407,47.407,47.407s47.407-21.269,47.407-47.407
				S405.398,334.037,379.259,334.037z M379.259,409.889c-15.685,0-28.444-12.759-28.444-28.444S363.574,353,379.259,353
				c15.685,0,28.444,12.759,28.444,28.444S394.944,409.889,379.259,409.889z"/>
			<path d="M256,0C114.843,0,0,114.843,0,256s114.843,256,256,256s256-114.843,256-256S397.157,0,256,0z M256,493.037
				C125.296,493.037,18.963,386.704,18.963,256S125.296,18.963,256,18.963S493.037,125.296,493.037,256S386.704,493.037,256,493.037
				z"/>
			<path d="M379.259,210.778c-26.139,0-47.407,21.269-47.407,47.407c0,26.139,21.269,47.407,47.407,47.407
				s47.407-21.269,47.407-47.407C426.667,232.047,405.398,210.778,379.259,210.778z M379.259,286.63
				c-15.685,0-28.444-12.759-28.444-28.444s12.759-28.444,28.444-28.444c15.685,0,28.444,12.759,28.444,28.444
				S394.944,286.63,379.259,286.63z"/>
			<path d="M256,87.519c-26.139,0-47.407,21.269-47.407,47.407s21.269,47.407,47.407,47.407s47.407-21.269,47.407-47.407
				S282.139,87.519,256,87.519z M256,163.37c-15.685,0-28.444-12.759-28.444-28.444c0-15.685,12.759-28.444,28.444-28.444
				s28.444,12.759,28.444,28.444C284.444,150.611,271.685,163.37,256,163.37z"/>
			<path d="M256,334.037c-26.139,0-47.407,21.269-47.407,47.407s21.269,47.407,47.407,47.407s47.407-21.269,47.407-47.407
				S282.139,334.037,256,334.037z M256,409.889c-15.685,0-28.444-12.759-28.444-28.444S240.315,353,256,353
				s28.444,12.759,28.444,28.444S271.685,409.889,256,409.889z"/>
			<path d="M256,210.778c-26.139,0-47.407,21.269-47.407,47.407c0,26.139,21.269,47.407,47.407,47.407s47.407-21.269,47.407-47.407
				C303.407,232.047,282.139,210.778,256,210.778z M256,286.63c-15.685,0-28.444-12.759-28.444-28.444s12.759-28.444,28.444-28.444
				s28.444,12.759,28.444,28.444S271.685,286.63,256,286.63z"/>
		</g>
	</g>
</g>
<g>
</g>
<g>
</g>
<g>
</g>
<g>
</g>
<g>
</g>
<g>
</g>
<g>
</g>
<g>
</g>
<g>
</g>
<g>
</g>
<g>
</g>
<g>
</g>
<g>
</g>
<g>
</g>
<g>
</g>
</svg>
